G04 EAGLE Gerber RS-274X export*
G75*
%MOMM*%
%FSLAX34Y34*%
%LPD*%
%INTop Copper*%
%IPPOS*%
%AMOC8*
5,1,8,0,0,1.08239X$1,22.5*%
G01*
%ADD10C,0.130000*%
%ADD11C,0.130000*%
%ADD12C,0.152400*%
%ADD13P,1.429621X8X22.500000*%
%ADD14P,1.429621X8X202.500000*%
%ADD15C,1.320800*%
%ADD16C,1.320800*%
%ADD17C,1.879600*%
%ADD18P,1.429621X8X112.500000*%
%ADD19P,1.539592X8X202.500000*%
%ADD20P,1.429621X8X292.500000*%
%ADD21C,0.756400*%


D10*
X-12700Y800100D03*
X-12700Y304800D03*
D11*
X-12700Y305450D02*
X-12700Y799450D01*
X-15892Y774100D01*
X-9508Y774100D01*
X-12700Y799450D01*
X-14000Y774100D01*
X-11400Y774100D02*
X-12700Y799450D01*
X-15300Y774100D01*
X-10100Y774100D02*
X-12700Y799450D01*
X-15892Y330800D02*
X-12700Y305450D01*
X-15892Y330800D02*
X-9508Y330800D01*
X-12700Y305450D01*
X-14000Y330800D01*
X-11400Y330800D02*
X-12700Y305450D01*
X-15300Y330800D01*
X-10100Y330800D02*
X-12700Y305450D01*
D12*
X-22819Y521302D02*
X-35463Y524914D01*
X-22819Y521302D02*
X-22819Y530333D01*
X-26432Y527624D02*
X-19207Y527624D01*
X-26432Y540546D02*
X-26432Y545964D01*
X-26432Y540546D02*
X-26434Y540428D01*
X-26440Y540310D01*
X-26449Y540192D01*
X-26463Y540075D01*
X-26480Y539958D01*
X-26501Y539841D01*
X-26526Y539726D01*
X-26555Y539611D01*
X-26588Y539497D01*
X-26624Y539385D01*
X-26664Y539274D01*
X-26707Y539164D01*
X-26754Y539055D01*
X-26804Y538948D01*
X-26859Y538843D01*
X-26916Y538740D01*
X-26977Y538639D01*
X-27041Y538539D01*
X-27108Y538442D01*
X-27178Y538347D01*
X-27252Y538255D01*
X-27328Y538164D01*
X-27408Y538077D01*
X-27490Y537992D01*
X-27575Y537910D01*
X-27662Y537830D01*
X-27753Y537754D01*
X-27845Y537680D01*
X-27940Y537610D01*
X-28037Y537543D01*
X-28137Y537479D01*
X-28238Y537418D01*
X-28341Y537361D01*
X-28446Y537306D01*
X-28553Y537256D01*
X-28662Y537209D01*
X-28772Y537166D01*
X-28883Y537126D01*
X-28995Y537090D01*
X-29109Y537057D01*
X-29224Y537028D01*
X-29339Y537003D01*
X-29456Y536982D01*
X-29573Y536965D01*
X-29690Y536951D01*
X-29808Y536942D01*
X-29926Y536936D01*
X-30044Y536934D01*
X-30044Y536933D02*
X-30947Y536933D01*
X-31080Y536935D01*
X-31212Y536941D01*
X-31344Y536951D01*
X-31476Y536964D01*
X-31608Y536982D01*
X-31738Y537003D01*
X-31869Y537028D01*
X-31998Y537057D01*
X-32126Y537090D01*
X-32254Y537126D01*
X-32380Y537166D01*
X-32505Y537210D01*
X-32629Y537258D01*
X-32751Y537309D01*
X-32872Y537364D01*
X-32991Y537422D01*
X-33109Y537484D01*
X-33224Y537549D01*
X-33338Y537618D01*
X-33449Y537689D01*
X-33558Y537765D01*
X-33665Y537843D01*
X-33770Y537924D01*
X-33872Y538009D01*
X-33972Y538096D01*
X-34069Y538186D01*
X-34164Y538279D01*
X-34255Y538375D01*
X-34344Y538473D01*
X-34430Y538574D01*
X-34513Y538678D01*
X-34593Y538784D01*
X-34669Y538892D01*
X-34743Y539002D01*
X-34813Y539115D01*
X-34880Y539229D01*
X-34943Y539346D01*
X-35003Y539464D01*
X-35060Y539584D01*
X-35113Y539706D01*
X-35162Y539829D01*
X-35208Y539953D01*
X-35250Y540079D01*
X-35288Y540206D01*
X-35323Y540334D01*
X-35354Y540463D01*
X-35381Y540592D01*
X-35404Y540723D01*
X-35424Y540854D01*
X-35439Y540986D01*
X-35451Y541118D01*
X-35459Y541250D01*
X-35463Y541383D01*
X-35463Y541515D01*
X-35459Y541648D01*
X-35451Y541780D01*
X-35439Y541912D01*
X-35424Y542044D01*
X-35404Y542175D01*
X-35381Y542306D01*
X-35354Y542435D01*
X-35323Y542564D01*
X-35288Y542692D01*
X-35250Y542819D01*
X-35208Y542945D01*
X-35162Y543069D01*
X-35113Y543192D01*
X-35060Y543314D01*
X-35003Y543434D01*
X-34943Y543552D01*
X-34880Y543669D01*
X-34813Y543783D01*
X-34743Y543896D01*
X-34669Y544006D01*
X-34593Y544114D01*
X-34513Y544220D01*
X-34430Y544324D01*
X-34344Y544425D01*
X-34255Y544523D01*
X-34164Y544619D01*
X-34069Y544712D01*
X-33972Y544802D01*
X-33872Y544889D01*
X-33770Y544974D01*
X-33665Y545055D01*
X-33558Y545133D01*
X-33449Y545209D01*
X-33338Y545280D01*
X-33224Y545349D01*
X-33109Y545414D01*
X-32991Y545476D01*
X-32872Y545534D01*
X-32751Y545589D01*
X-32629Y545640D01*
X-32505Y545688D01*
X-32380Y545732D01*
X-32254Y545772D01*
X-32126Y545808D01*
X-31998Y545841D01*
X-31869Y545870D01*
X-31738Y545895D01*
X-31608Y545916D01*
X-31476Y545934D01*
X-31344Y545947D01*
X-31212Y545957D01*
X-31080Y545963D01*
X-30947Y545965D01*
X-30947Y545964D02*
X-26432Y545964D01*
X-26257Y545962D01*
X-26083Y545956D01*
X-25909Y545945D01*
X-25735Y545930D01*
X-25561Y545911D01*
X-25388Y545888D01*
X-25216Y545861D01*
X-25044Y545829D01*
X-24873Y545794D01*
X-24703Y545754D01*
X-24534Y545710D01*
X-24366Y545662D01*
X-24199Y545610D01*
X-24034Y545554D01*
X-23870Y545494D01*
X-23707Y545431D01*
X-23547Y545363D01*
X-23387Y545291D01*
X-23230Y545216D01*
X-23074Y545136D01*
X-22921Y545053D01*
X-22769Y544967D01*
X-22620Y544876D01*
X-22473Y544782D01*
X-22328Y544685D01*
X-22185Y544584D01*
X-22045Y544480D01*
X-21908Y544372D01*
X-21773Y544261D01*
X-21641Y544147D01*
X-21512Y544030D01*
X-21385Y543909D01*
X-21262Y543786D01*
X-21141Y543659D01*
X-21024Y543530D01*
X-20910Y543398D01*
X-20799Y543263D01*
X-20691Y543126D01*
X-20587Y542986D01*
X-20486Y542843D01*
X-20389Y542698D01*
X-20295Y542551D01*
X-20204Y542402D01*
X-20118Y542250D01*
X-20035Y542097D01*
X-19955Y541941D01*
X-19880Y541784D01*
X-19808Y541624D01*
X-19740Y541464D01*
X-19677Y541301D01*
X-19617Y541137D01*
X-19561Y540972D01*
X-19509Y540805D01*
X-19461Y540637D01*
X-19417Y540468D01*
X-19377Y540298D01*
X-19342Y540127D01*
X-19310Y539955D01*
X-19283Y539783D01*
X-19260Y539610D01*
X-19241Y539436D01*
X-19226Y539262D01*
X-19215Y539088D01*
X-19209Y538914D01*
X-19207Y538739D01*
X-19207Y551939D02*
X-20110Y551939D01*
X-20110Y552842D01*
X-19207Y552842D01*
X-19207Y551939D01*
X-19207Y558817D02*
X-19207Y564236D01*
X-19209Y564354D01*
X-19215Y564472D01*
X-19224Y564590D01*
X-19238Y564707D01*
X-19255Y564824D01*
X-19276Y564941D01*
X-19301Y565056D01*
X-19330Y565171D01*
X-19363Y565285D01*
X-19399Y565397D01*
X-19439Y565508D01*
X-19482Y565618D01*
X-19529Y565727D01*
X-19579Y565834D01*
X-19634Y565939D01*
X-19691Y566042D01*
X-19752Y566143D01*
X-19816Y566243D01*
X-19883Y566340D01*
X-19953Y566435D01*
X-20027Y566527D01*
X-20103Y566618D01*
X-20183Y566705D01*
X-20265Y566790D01*
X-20350Y566872D01*
X-20437Y566952D01*
X-20528Y567028D01*
X-20620Y567102D01*
X-20715Y567172D01*
X-20812Y567239D01*
X-20912Y567303D01*
X-21013Y567364D01*
X-21116Y567421D01*
X-21221Y567476D01*
X-21328Y567526D01*
X-21437Y567573D01*
X-21547Y567616D01*
X-21658Y567656D01*
X-21770Y567692D01*
X-21884Y567725D01*
X-21999Y567754D01*
X-22114Y567779D01*
X-22231Y567800D01*
X-22348Y567817D01*
X-22465Y567831D01*
X-22583Y567840D01*
X-22701Y567846D01*
X-22819Y567848D01*
X-24626Y567848D01*
X-24744Y567846D01*
X-24862Y567840D01*
X-24980Y567831D01*
X-25097Y567817D01*
X-25214Y567800D01*
X-25331Y567779D01*
X-25446Y567754D01*
X-25561Y567725D01*
X-25675Y567692D01*
X-25787Y567656D01*
X-25898Y567616D01*
X-26008Y567573D01*
X-26117Y567526D01*
X-26224Y567476D01*
X-26329Y567421D01*
X-26432Y567364D01*
X-26533Y567303D01*
X-26633Y567239D01*
X-26730Y567172D01*
X-26825Y567102D01*
X-26917Y567028D01*
X-27008Y566952D01*
X-27095Y566872D01*
X-27180Y566790D01*
X-27262Y566705D01*
X-27342Y566618D01*
X-27418Y566527D01*
X-27492Y566435D01*
X-27562Y566340D01*
X-27629Y566243D01*
X-27693Y566143D01*
X-27754Y566042D01*
X-27811Y565939D01*
X-27866Y565834D01*
X-27916Y565727D01*
X-27963Y565618D01*
X-28006Y565508D01*
X-28046Y565397D01*
X-28082Y565285D01*
X-28115Y565171D01*
X-28144Y565056D01*
X-28169Y564941D01*
X-28190Y564824D01*
X-28207Y564707D01*
X-28221Y564590D01*
X-28230Y564472D01*
X-28236Y564354D01*
X-28238Y564236D01*
X-28238Y558817D01*
X-35463Y558817D01*
X-35463Y567848D01*
X-19207Y574448D02*
X-19207Y578964D01*
X-19209Y579097D01*
X-19215Y579229D01*
X-19225Y579361D01*
X-19238Y579493D01*
X-19256Y579625D01*
X-19277Y579755D01*
X-19302Y579886D01*
X-19331Y580015D01*
X-19364Y580143D01*
X-19400Y580271D01*
X-19440Y580397D01*
X-19484Y580522D01*
X-19532Y580646D01*
X-19583Y580768D01*
X-19638Y580889D01*
X-19696Y581008D01*
X-19758Y581126D01*
X-19823Y581241D01*
X-19892Y581355D01*
X-19963Y581466D01*
X-20039Y581575D01*
X-20117Y581682D01*
X-20198Y581787D01*
X-20283Y581889D01*
X-20370Y581989D01*
X-20460Y582086D01*
X-20553Y582181D01*
X-20649Y582272D01*
X-20747Y582361D01*
X-20848Y582447D01*
X-20952Y582530D01*
X-21058Y582610D01*
X-21166Y582686D01*
X-21276Y582760D01*
X-21389Y582830D01*
X-21503Y582897D01*
X-21620Y582960D01*
X-21738Y583020D01*
X-21858Y583077D01*
X-21980Y583130D01*
X-22103Y583179D01*
X-22227Y583225D01*
X-22353Y583267D01*
X-22480Y583305D01*
X-22608Y583340D01*
X-22737Y583371D01*
X-22866Y583398D01*
X-22997Y583421D01*
X-23128Y583441D01*
X-23260Y583456D01*
X-23392Y583468D01*
X-23524Y583476D01*
X-23657Y583480D01*
X-23789Y583480D01*
X-23922Y583476D01*
X-24054Y583468D01*
X-24186Y583456D01*
X-24318Y583441D01*
X-24449Y583421D01*
X-24580Y583398D01*
X-24709Y583371D01*
X-24838Y583340D01*
X-24966Y583305D01*
X-25093Y583267D01*
X-25219Y583225D01*
X-25343Y583179D01*
X-25466Y583130D01*
X-25588Y583077D01*
X-25708Y583020D01*
X-25826Y582960D01*
X-25943Y582897D01*
X-26057Y582830D01*
X-26170Y582760D01*
X-26280Y582686D01*
X-26388Y582610D01*
X-26494Y582530D01*
X-26598Y582447D01*
X-26699Y582361D01*
X-26797Y582272D01*
X-26893Y582181D01*
X-26986Y582086D01*
X-27076Y581989D01*
X-27163Y581889D01*
X-27248Y581787D01*
X-27329Y581682D01*
X-27407Y581575D01*
X-27483Y581466D01*
X-27554Y581355D01*
X-27623Y581241D01*
X-27688Y581126D01*
X-27750Y581008D01*
X-27808Y580889D01*
X-27863Y580768D01*
X-27914Y580646D01*
X-27962Y580522D01*
X-28006Y580397D01*
X-28046Y580271D01*
X-28082Y580143D01*
X-28115Y580015D01*
X-28144Y579886D01*
X-28169Y579755D01*
X-28190Y579625D01*
X-28208Y579493D01*
X-28221Y579361D01*
X-28231Y579229D01*
X-28237Y579097D01*
X-28239Y578964D01*
X-35463Y579867D02*
X-35463Y574448D01*
X-35463Y579867D02*
X-35461Y579986D01*
X-35455Y580106D01*
X-35445Y580225D01*
X-35431Y580343D01*
X-35414Y580462D01*
X-35392Y580579D01*
X-35367Y580696D01*
X-35337Y580811D01*
X-35304Y580926D01*
X-35267Y581040D01*
X-35227Y581152D01*
X-35182Y581263D01*
X-35134Y581372D01*
X-35083Y581480D01*
X-35028Y581586D01*
X-34969Y581690D01*
X-34907Y581792D01*
X-34842Y581892D01*
X-34773Y581990D01*
X-34701Y582086D01*
X-34626Y582179D01*
X-34549Y582269D01*
X-34468Y582357D01*
X-34384Y582442D01*
X-34297Y582524D01*
X-34208Y582604D01*
X-34116Y582680D01*
X-34022Y582754D01*
X-33925Y582824D01*
X-33827Y582891D01*
X-33726Y582955D01*
X-33622Y583015D01*
X-33517Y583072D01*
X-33410Y583125D01*
X-33302Y583175D01*
X-33192Y583221D01*
X-33080Y583263D01*
X-32967Y583302D01*
X-32853Y583337D01*
X-32738Y583368D01*
X-32621Y583396D01*
X-32504Y583419D01*
X-32387Y583439D01*
X-32268Y583455D01*
X-32149Y583467D01*
X-32030Y583475D01*
X-31911Y583479D01*
X-31791Y583479D01*
X-31672Y583475D01*
X-31553Y583467D01*
X-31434Y583455D01*
X-31315Y583439D01*
X-31198Y583419D01*
X-31081Y583396D01*
X-30964Y583368D01*
X-30849Y583337D01*
X-30735Y583302D01*
X-30622Y583263D01*
X-30510Y583221D01*
X-30400Y583175D01*
X-30292Y583125D01*
X-30185Y583072D01*
X-30080Y583015D01*
X-29976Y582955D01*
X-29875Y582891D01*
X-29777Y582824D01*
X-29680Y582754D01*
X-29586Y582680D01*
X-29494Y582604D01*
X-29405Y582524D01*
X-29318Y582442D01*
X-29234Y582357D01*
X-29153Y582269D01*
X-29076Y582179D01*
X-29001Y582086D01*
X-28929Y581990D01*
X-28860Y581892D01*
X-28795Y581792D01*
X-28733Y581690D01*
X-28674Y581586D01*
X-28619Y581480D01*
X-28568Y581372D01*
X-28520Y581263D01*
X-28475Y581152D01*
X-28435Y581040D01*
X-28398Y580926D01*
X-28365Y580811D01*
X-28335Y580696D01*
X-28310Y580579D01*
X-28288Y580462D01*
X-28271Y580343D01*
X-28257Y580225D01*
X-28247Y580106D01*
X-28241Y579986D01*
X-28239Y579867D01*
X-28238Y579867D02*
X-28238Y576254D01*
D10*
X0Y812800D03*
X889000Y812800D03*
D11*
X888350Y812800D02*
X650Y812800D01*
X26000Y815992D01*
X26000Y809608D01*
X650Y812800D01*
X26000Y814100D01*
X26000Y811500D02*
X650Y812800D01*
X26000Y815400D01*
X26000Y810200D02*
X650Y812800D01*
X863000Y815992D02*
X888350Y812800D01*
X863000Y815992D02*
X863000Y809608D01*
X888350Y812800D01*
X863000Y814100D01*
X863000Y811500D02*
X888350Y812800D01*
X863000Y815400D01*
X863000Y810200D02*
X888350Y812800D01*
D12*
X422384Y823823D02*
X422382Y823956D01*
X422376Y824088D01*
X422366Y824220D01*
X422353Y824352D01*
X422335Y824484D01*
X422314Y824614D01*
X422289Y824745D01*
X422260Y824874D01*
X422227Y825002D01*
X422191Y825130D01*
X422151Y825256D01*
X422107Y825381D01*
X422059Y825505D01*
X422008Y825627D01*
X421953Y825748D01*
X421895Y825867D01*
X421833Y825985D01*
X421768Y826100D01*
X421699Y826214D01*
X421628Y826325D01*
X421552Y826434D01*
X421474Y826541D01*
X421393Y826646D01*
X421308Y826748D01*
X421221Y826848D01*
X421131Y826945D01*
X421038Y827040D01*
X420942Y827131D01*
X420844Y827220D01*
X420743Y827306D01*
X420639Y827389D01*
X420533Y827469D01*
X420425Y827545D01*
X420315Y827619D01*
X420202Y827689D01*
X420088Y827756D01*
X419971Y827819D01*
X419853Y827879D01*
X419733Y827936D01*
X419611Y827989D01*
X419488Y828038D01*
X419364Y828084D01*
X419238Y828126D01*
X419111Y828164D01*
X418983Y828199D01*
X418854Y828230D01*
X418725Y828257D01*
X418594Y828280D01*
X418463Y828300D01*
X418331Y828315D01*
X418199Y828327D01*
X418067Y828335D01*
X417934Y828339D01*
X417802Y828339D01*
X417669Y828335D01*
X417537Y828327D01*
X417405Y828315D01*
X417273Y828300D01*
X417142Y828280D01*
X417011Y828257D01*
X416882Y828230D01*
X416753Y828199D01*
X416625Y828164D01*
X416498Y828126D01*
X416372Y828084D01*
X416248Y828038D01*
X416125Y827989D01*
X416003Y827936D01*
X415883Y827879D01*
X415765Y827819D01*
X415648Y827756D01*
X415534Y827689D01*
X415421Y827619D01*
X415311Y827545D01*
X415203Y827469D01*
X415097Y827389D01*
X414993Y827306D01*
X414892Y827220D01*
X414794Y827131D01*
X414698Y827040D01*
X414605Y826945D01*
X414515Y826848D01*
X414428Y826748D01*
X414343Y826646D01*
X414262Y826541D01*
X414184Y826434D01*
X414108Y826325D01*
X414037Y826214D01*
X413968Y826100D01*
X413903Y825985D01*
X413841Y825867D01*
X413783Y825748D01*
X413728Y825627D01*
X413677Y825505D01*
X413629Y825381D01*
X413585Y825256D01*
X413545Y825130D01*
X413509Y825002D01*
X413476Y824874D01*
X413447Y824745D01*
X413422Y824614D01*
X413401Y824484D01*
X413383Y824352D01*
X413370Y824220D01*
X413360Y824088D01*
X413354Y823956D01*
X413352Y823823D01*
X413354Y823690D01*
X413360Y823558D01*
X413370Y823426D01*
X413383Y823294D01*
X413401Y823162D01*
X413422Y823032D01*
X413447Y822901D01*
X413476Y822772D01*
X413509Y822644D01*
X413545Y822516D01*
X413585Y822390D01*
X413629Y822265D01*
X413677Y822141D01*
X413728Y822019D01*
X413783Y821898D01*
X413841Y821779D01*
X413903Y821661D01*
X413968Y821546D01*
X414037Y821432D01*
X414108Y821321D01*
X414184Y821212D01*
X414262Y821105D01*
X414343Y821000D01*
X414428Y820898D01*
X414515Y820798D01*
X414605Y820701D01*
X414698Y820606D01*
X414794Y820515D01*
X414892Y820426D01*
X414993Y820340D01*
X415097Y820257D01*
X415203Y820177D01*
X415311Y820101D01*
X415421Y820027D01*
X415534Y819957D01*
X415648Y819890D01*
X415765Y819827D01*
X415883Y819767D01*
X416003Y819710D01*
X416125Y819657D01*
X416248Y819608D01*
X416372Y819562D01*
X416498Y819520D01*
X416625Y819482D01*
X416753Y819447D01*
X416882Y819416D01*
X417011Y819389D01*
X417142Y819366D01*
X417273Y819346D01*
X417405Y819331D01*
X417537Y819319D01*
X417669Y819311D01*
X417802Y819307D01*
X417934Y819307D01*
X418067Y819311D01*
X418199Y819319D01*
X418331Y819331D01*
X418463Y819346D01*
X418594Y819366D01*
X418725Y819389D01*
X418854Y819416D01*
X418983Y819447D01*
X419111Y819482D01*
X419238Y819520D01*
X419364Y819562D01*
X419488Y819608D01*
X419611Y819657D01*
X419733Y819710D01*
X419853Y819767D01*
X419971Y819827D01*
X420088Y819890D01*
X420202Y819957D01*
X420315Y820027D01*
X420425Y820101D01*
X420533Y820177D01*
X420639Y820257D01*
X420743Y820340D01*
X420844Y820426D01*
X420942Y820515D01*
X421038Y820606D01*
X421131Y820701D01*
X421221Y820798D01*
X421308Y820898D01*
X421393Y821000D01*
X421474Y821105D01*
X421552Y821212D01*
X421628Y821321D01*
X421699Y821432D01*
X421768Y821546D01*
X421833Y821661D01*
X421895Y821779D01*
X421953Y821898D01*
X422008Y822019D01*
X422059Y822141D01*
X422107Y822265D01*
X422151Y822390D01*
X422191Y822516D01*
X422227Y822644D01*
X422260Y822772D01*
X422289Y822901D01*
X422314Y823032D01*
X422335Y823162D01*
X422353Y823294D01*
X422366Y823426D01*
X422376Y823558D01*
X422382Y823690D01*
X422384Y823823D01*
X421480Y831951D02*
X421478Y832070D01*
X421472Y832190D01*
X421462Y832309D01*
X421448Y832427D01*
X421431Y832546D01*
X421409Y832663D01*
X421384Y832780D01*
X421354Y832895D01*
X421321Y833010D01*
X421284Y833124D01*
X421244Y833236D01*
X421199Y833347D01*
X421151Y833456D01*
X421100Y833564D01*
X421045Y833670D01*
X420986Y833774D01*
X420924Y833876D01*
X420859Y833976D01*
X420790Y834074D01*
X420718Y834170D01*
X420643Y834263D01*
X420566Y834353D01*
X420485Y834441D01*
X420401Y834526D01*
X420314Y834608D01*
X420225Y834688D01*
X420133Y834764D01*
X420039Y834838D01*
X419942Y834908D01*
X419844Y834975D01*
X419743Y835039D01*
X419639Y835099D01*
X419534Y835156D01*
X419427Y835209D01*
X419319Y835259D01*
X419209Y835305D01*
X419097Y835347D01*
X418984Y835386D01*
X418870Y835421D01*
X418755Y835452D01*
X418638Y835480D01*
X418521Y835503D01*
X418404Y835523D01*
X418285Y835539D01*
X418166Y835551D01*
X418047Y835559D01*
X417928Y835563D01*
X417808Y835563D01*
X417689Y835559D01*
X417570Y835551D01*
X417451Y835539D01*
X417332Y835523D01*
X417215Y835503D01*
X417098Y835480D01*
X416981Y835452D01*
X416866Y835421D01*
X416752Y835386D01*
X416639Y835347D01*
X416527Y835305D01*
X416417Y835259D01*
X416309Y835209D01*
X416202Y835156D01*
X416097Y835099D01*
X415993Y835039D01*
X415892Y834975D01*
X415794Y834908D01*
X415697Y834838D01*
X415603Y834764D01*
X415511Y834688D01*
X415422Y834608D01*
X415335Y834526D01*
X415251Y834441D01*
X415170Y834353D01*
X415093Y834263D01*
X415018Y834170D01*
X414946Y834074D01*
X414877Y833976D01*
X414812Y833876D01*
X414750Y833774D01*
X414691Y833670D01*
X414636Y833564D01*
X414585Y833456D01*
X414537Y833347D01*
X414492Y833236D01*
X414452Y833124D01*
X414415Y833010D01*
X414382Y832895D01*
X414352Y832780D01*
X414327Y832663D01*
X414305Y832546D01*
X414288Y832427D01*
X414274Y832309D01*
X414264Y832190D01*
X414258Y832070D01*
X414256Y831951D01*
X414258Y831832D01*
X414264Y831712D01*
X414274Y831593D01*
X414288Y831475D01*
X414305Y831356D01*
X414327Y831239D01*
X414352Y831122D01*
X414382Y831007D01*
X414415Y830892D01*
X414452Y830778D01*
X414492Y830666D01*
X414537Y830555D01*
X414585Y830446D01*
X414636Y830338D01*
X414691Y830232D01*
X414750Y830128D01*
X414812Y830026D01*
X414877Y829926D01*
X414946Y829828D01*
X415018Y829732D01*
X415093Y829639D01*
X415170Y829549D01*
X415251Y829461D01*
X415335Y829376D01*
X415422Y829294D01*
X415511Y829214D01*
X415603Y829138D01*
X415697Y829064D01*
X415794Y828994D01*
X415892Y828927D01*
X415993Y828863D01*
X416097Y828803D01*
X416202Y828746D01*
X416309Y828693D01*
X416417Y828643D01*
X416527Y828597D01*
X416639Y828555D01*
X416752Y828516D01*
X416866Y828481D01*
X416981Y828450D01*
X417098Y828422D01*
X417215Y828399D01*
X417332Y828379D01*
X417451Y828363D01*
X417570Y828351D01*
X417689Y828343D01*
X417808Y828339D01*
X417928Y828339D01*
X418047Y828343D01*
X418166Y828351D01*
X418285Y828363D01*
X418404Y828379D01*
X418521Y828399D01*
X418638Y828422D01*
X418755Y828450D01*
X418870Y828481D01*
X418984Y828516D01*
X419097Y828555D01*
X419209Y828597D01*
X419319Y828643D01*
X419427Y828693D01*
X419534Y828746D01*
X419639Y828803D01*
X419743Y828863D01*
X419844Y828927D01*
X419942Y828994D01*
X420039Y829064D01*
X420133Y829138D01*
X420225Y829214D01*
X420314Y829294D01*
X420401Y829376D01*
X420485Y829461D01*
X420566Y829549D01*
X420643Y829639D01*
X420718Y829732D01*
X420790Y829828D01*
X420859Y829926D01*
X420924Y830026D01*
X420986Y830128D01*
X421045Y830232D01*
X421100Y830338D01*
X421151Y830446D01*
X421199Y830555D01*
X421244Y830666D01*
X421284Y830778D01*
X421321Y830892D01*
X421354Y831007D01*
X421384Y831122D01*
X421409Y831239D01*
X421431Y831356D01*
X421448Y831475D01*
X421462Y831593D01*
X421472Y831712D01*
X421478Y831832D01*
X421480Y831951D01*
X428983Y823823D02*
X428985Y823956D01*
X428991Y824088D01*
X429001Y824220D01*
X429014Y824352D01*
X429032Y824484D01*
X429053Y824614D01*
X429078Y824745D01*
X429107Y824874D01*
X429140Y825002D01*
X429176Y825130D01*
X429216Y825256D01*
X429260Y825381D01*
X429308Y825505D01*
X429359Y825627D01*
X429414Y825748D01*
X429472Y825867D01*
X429534Y825985D01*
X429599Y826100D01*
X429668Y826214D01*
X429739Y826325D01*
X429815Y826434D01*
X429893Y826541D01*
X429974Y826646D01*
X430059Y826748D01*
X430146Y826848D01*
X430236Y826945D01*
X430329Y827040D01*
X430425Y827131D01*
X430523Y827220D01*
X430624Y827306D01*
X430728Y827389D01*
X430834Y827469D01*
X430942Y827545D01*
X431052Y827619D01*
X431165Y827689D01*
X431279Y827756D01*
X431396Y827819D01*
X431514Y827879D01*
X431634Y827936D01*
X431756Y827989D01*
X431879Y828038D01*
X432003Y828084D01*
X432129Y828126D01*
X432256Y828164D01*
X432384Y828199D01*
X432513Y828230D01*
X432642Y828257D01*
X432773Y828280D01*
X432904Y828300D01*
X433036Y828315D01*
X433168Y828327D01*
X433300Y828335D01*
X433433Y828339D01*
X433565Y828339D01*
X433698Y828335D01*
X433830Y828327D01*
X433962Y828315D01*
X434094Y828300D01*
X434225Y828280D01*
X434356Y828257D01*
X434485Y828230D01*
X434614Y828199D01*
X434742Y828164D01*
X434869Y828126D01*
X434995Y828084D01*
X435119Y828038D01*
X435242Y827989D01*
X435364Y827936D01*
X435484Y827879D01*
X435602Y827819D01*
X435719Y827756D01*
X435833Y827689D01*
X435946Y827619D01*
X436056Y827545D01*
X436164Y827469D01*
X436270Y827389D01*
X436374Y827306D01*
X436475Y827220D01*
X436573Y827131D01*
X436669Y827040D01*
X436762Y826945D01*
X436852Y826848D01*
X436939Y826748D01*
X437024Y826646D01*
X437105Y826541D01*
X437183Y826434D01*
X437259Y826325D01*
X437330Y826214D01*
X437399Y826100D01*
X437464Y825985D01*
X437526Y825867D01*
X437584Y825748D01*
X437639Y825627D01*
X437690Y825505D01*
X437738Y825381D01*
X437782Y825256D01*
X437822Y825130D01*
X437858Y825002D01*
X437891Y824874D01*
X437920Y824745D01*
X437945Y824614D01*
X437966Y824484D01*
X437984Y824352D01*
X437997Y824220D01*
X438007Y824088D01*
X438013Y823956D01*
X438015Y823823D01*
X438013Y823690D01*
X438007Y823558D01*
X437997Y823426D01*
X437984Y823294D01*
X437966Y823162D01*
X437945Y823032D01*
X437920Y822901D01*
X437891Y822772D01*
X437858Y822644D01*
X437822Y822516D01*
X437782Y822390D01*
X437738Y822265D01*
X437690Y822141D01*
X437639Y822019D01*
X437584Y821898D01*
X437526Y821779D01*
X437464Y821661D01*
X437399Y821546D01*
X437330Y821432D01*
X437259Y821321D01*
X437183Y821212D01*
X437105Y821105D01*
X437024Y821000D01*
X436939Y820898D01*
X436852Y820798D01*
X436762Y820701D01*
X436669Y820606D01*
X436573Y820515D01*
X436475Y820426D01*
X436374Y820340D01*
X436270Y820257D01*
X436164Y820177D01*
X436056Y820101D01*
X435946Y820027D01*
X435833Y819957D01*
X435719Y819890D01*
X435602Y819827D01*
X435484Y819767D01*
X435364Y819710D01*
X435242Y819657D01*
X435119Y819608D01*
X434995Y819562D01*
X434869Y819520D01*
X434742Y819482D01*
X434614Y819447D01*
X434485Y819416D01*
X434356Y819389D01*
X434225Y819366D01*
X434094Y819346D01*
X433962Y819331D01*
X433830Y819319D01*
X433698Y819311D01*
X433565Y819307D01*
X433433Y819307D01*
X433300Y819311D01*
X433168Y819319D01*
X433036Y819331D01*
X432904Y819346D01*
X432773Y819366D01*
X432642Y819389D01*
X432513Y819416D01*
X432384Y819447D01*
X432256Y819482D01*
X432129Y819520D01*
X432003Y819562D01*
X431879Y819608D01*
X431756Y819657D01*
X431634Y819710D01*
X431514Y819767D01*
X431396Y819827D01*
X431279Y819890D01*
X431165Y819957D01*
X431052Y820027D01*
X430942Y820101D01*
X430834Y820177D01*
X430728Y820257D01*
X430624Y820340D01*
X430523Y820426D01*
X430425Y820515D01*
X430329Y820606D01*
X430236Y820701D01*
X430146Y820798D01*
X430059Y820898D01*
X429974Y821000D01*
X429893Y821105D01*
X429815Y821212D01*
X429739Y821321D01*
X429668Y821432D01*
X429599Y821546D01*
X429534Y821661D01*
X429472Y821779D01*
X429414Y821898D01*
X429359Y822019D01*
X429308Y822141D01*
X429260Y822265D01*
X429216Y822390D01*
X429176Y822516D01*
X429140Y822644D01*
X429107Y822772D01*
X429078Y822901D01*
X429053Y823032D01*
X429032Y823162D01*
X429014Y823294D01*
X429001Y823426D01*
X428991Y823558D01*
X428985Y823690D01*
X428983Y823823D01*
X429887Y831951D02*
X429889Y832070D01*
X429895Y832190D01*
X429905Y832309D01*
X429919Y832427D01*
X429936Y832546D01*
X429958Y832663D01*
X429983Y832780D01*
X430013Y832895D01*
X430046Y833010D01*
X430083Y833124D01*
X430123Y833236D01*
X430168Y833347D01*
X430216Y833456D01*
X430267Y833564D01*
X430322Y833670D01*
X430381Y833774D01*
X430443Y833876D01*
X430508Y833976D01*
X430577Y834074D01*
X430649Y834170D01*
X430724Y834263D01*
X430801Y834353D01*
X430882Y834441D01*
X430966Y834526D01*
X431053Y834608D01*
X431142Y834688D01*
X431234Y834764D01*
X431328Y834838D01*
X431425Y834908D01*
X431523Y834975D01*
X431624Y835039D01*
X431728Y835099D01*
X431833Y835156D01*
X431940Y835209D01*
X432048Y835259D01*
X432158Y835305D01*
X432270Y835347D01*
X432383Y835386D01*
X432497Y835421D01*
X432612Y835452D01*
X432729Y835480D01*
X432846Y835503D01*
X432963Y835523D01*
X433082Y835539D01*
X433201Y835551D01*
X433320Y835559D01*
X433439Y835563D01*
X433559Y835563D01*
X433678Y835559D01*
X433797Y835551D01*
X433916Y835539D01*
X434035Y835523D01*
X434152Y835503D01*
X434269Y835480D01*
X434386Y835452D01*
X434501Y835421D01*
X434615Y835386D01*
X434728Y835347D01*
X434840Y835305D01*
X434950Y835259D01*
X435058Y835209D01*
X435165Y835156D01*
X435270Y835099D01*
X435374Y835039D01*
X435475Y834975D01*
X435573Y834908D01*
X435670Y834838D01*
X435764Y834764D01*
X435856Y834688D01*
X435945Y834608D01*
X436032Y834526D01*
X436116Y834441D01*
X436197Y834353D01*
X436274Y834263D01*
X436349Y834170D01*
X436421Y834074D01*
X436490Y833976D01*
X436555Y833876D01*
X436617Y833774D01*
X436676Y833670D01*
X436731Y833564D01*
X436782Y833456D01*
X436830Y833347D01*
X436875Y833236D01*
X436915Y833124D01*
X436952Y833010D01*
X436985Y832895D01*
X437015Y832780D01*
X437040Y832663D01*
X437062Y832546D01*
X437079Y832427D01*
X437093Y832309D01*
X437103Y832190D01*
X437109Y832070D01*
X437111Y831951D01*
X437109Y831832D01*
X437103Y831712D01*
X437093Y831593D01*
X437079Y831475D01*
X437062Y831356D01*
X437040Y831239D01*
X437015Y831122D01*
X436985Y831007D01*
X436952Y830892D01*
X436915Y830778D01*
X436875Y830666D01*
X436830Y830555D01*
X436782Y830446D01*
X436731Y830338D01*
X436676Y830232D01*
X436617Y830128D01*
X436555Y830026D01*
X436490Y829926D01*
X436421Y829828D01*
X436349Y829732D01*
X436274Y829639D01*
X436197Y829549D01*
X436116Y829461D01*
X436032Y829376D01*
X435945Y829294D01*
X435856Y829214D01*
X435764Y829138D01*
X435670Y829064D01*
X435573Y828994D01*
X435475Y828927D01*
X435374Y828863D01*
X435270Y828803D01*
X435165Y828746D01*
X435058Y828693D01*
X434950Y828643D01*
X434840Y828597D01*
X434728Y828555D01*
X434615Y828516D01*
X434501Y828481D01*
X434386Y828450D01*
X434269Y828422D01*
X434152Y828399D01*
X434035Y828379D01*
X433916Y828363D01*
X433797Y828351D01*
X433678Y828343D01*
X433559Y828339D01*
X433439Y828339D01*
X433320Y828343D01*
X433201Y828351D01*
X433082Y828363D01*
X432963Y828379D01*
X432846Y828399D01*
X432729Y828422D01*
X432612Y828450D01*
X432497Y828481D01*
X432383Y828516D01*
X432270Y828555D01*
X432158Y828597D01*
X432048Y828643D01*
X431940Y828693D01*
X431833Y828746D01*
X431728Y828803D01*
X431624Y828863D01*
X431523Y828927D01*
X431425Y828994D01*
X431328Y829064D01*
X431234Y829138D01*
X431142Y829214D01*
X431053Y829294D01*
X430966Y829376D01*
X430882Y829461D01*
X430801Y829549D01*
X430724Y829639D01*
X430649Y829732D01*
X430577Y829828D01*
X430508Y829926D01*
X430443Y830026D01*
X430381Y830128D01*
X430322Y830232D01*
X430267Y830338D01*
X430216Y830446D01*
X430168Y830555D01*
X430123Y830666D01*
X430083Y830778D01*
X430046Y830892D01*
X430013Y831007D01*
X429983Y831122D01*
X429958Y831239D01*
X429936Y831356D01*
X429919Y831475D01*
X429905Y831593D01*
X429895Y831712D01*
X429889Y831832D01*
X429887Y831951D01*
X443989Y820210D02*
X443989Y819307D01*
X443989Y820210D02*
X444892Y820210D01*
X444892Y819307D01*
X443989Y819307D01*
X454479Y826532D02*
X459898Y826532D01*
X454479Y826532D02*
X454361Y826534D01*
X454243Y826540D01*
X454125Y826549D01*
X454008Y826563D01*
X453891Y826580D01*
X453774Y826601D01*
X453659Y826626D01*
X453544Y826655D01*
X453430Y826688D01*
X453318Y826724D01*
X453207Y826764D01*
X453097Y826807D01*
X452988Y826854D01*
X452881Y826904D01*
X452776Y826959D01*
X452673Y827016D01*
X452572Y827077D01*
X452472Y827141D01*
X452375Y827208D01*
X452280Y827278D01*
X452188Y827352D01*
X452097Y827428D01*
X452010Y827508D01*
X451925Y827590D01*
X451843Y827675D01*
X451763Y827762D01*
X451687Y827853D01*
X451613Y827945D01*
X451543Y828040D01*
X451476Y828137D01*
X451412Y828237D01*
X451351Y828338D01*
X451294Y828441D01*
X451239Y828546D01*
X451189Y828653D01*
X451142Y828762D01*
X451099Y828872D01*
X451059Y828983D01*
X451023Y829095D01*
X450990Y829209D01*
X450961Y829324D01*
X450936Y829439D01*
X450915Y829556D01*
X450898Y829673D01*
X450884Y829790D01*
X450875Y829908D01*
X450869Y830026D01*
X450867Y830144D01*
X450867Y831047D01*
X450866Y831047D02*
X450868Y831180D01*
X450874Y831312D01*
X450884Y831444D01*
X450897Y831576D01*
X450915Y831708D01*
X450936Y831838D01*
X450961Y831969D01*
X450990Y832098D01*
X451023Y832226D01*
X451059Y832354D01*
X451099Y832480D01*
X451143Y832605D01*
X451191Y832729D01*
X451242Y832851D01*
X451297Y832972D01*
X451355Y833091D01*
X451417Y833209D01*
X451482Y833324D01*
X451551Y833438D01*
X451622Y833549D01*
X451698Y833658D01*
X451776Y833765D01*
X451857Y833870D01*
X451942Y833972D01*
X452029Y834072D01*
X452119Y834169D01*
X452212Y834264D01*
X452308Y834355D01*
X452406Y834444D01*
X452507Y834530D01*
X452611Y834613D01*
X452717Y834693D01*
X452825Y834769D01*
X452935Y834843D01*
X453048Y834913D01*
X453162Y834980D01*
X453279Y835043D01*
X453397Y835103D01*
X453517Y835160D01*
X453639Y835213D01*
X453762Y835262D01*
X453886Y835308D01*
X454012Y835350D01*
X454139Y835388D01*
X454267Y835423D01*
X454396Y835454D01*
X454525Y835481D01*
X454656Y835504D01*
X454787Y835524D01*
X454919Y835539D01*
X455051Y835551D01*
X455183Y835559D01*
X455316Y835563D01*
X455448Y835563D01*
X455581Y835559D01*
X455713Y835551D01*
X455845Y835539D01*
X455977Y835524D01*
X456108Y835504D01*
X456239Y835481D01*
X456368Y835454D01*
X456497Y835423D01*
X456625Y835388D01*
X456752Y835350D01*
X456878Y835308D01*
X457002Y835262D01*
X457125Y835213D01*
X457247Y835160D01*
X457367Y835103D01*
X457485Y835043D01*
X457602Y834980D01*
X457716Y834913D01*
X457829Y834843D01*
X457939Y834769D01*
X458047Y834693D01*
X458153Y834613D01*
X458257Y834530D01*
X458358Y834444D01*
X458456Y834355D01*
X458552Y834264D01*
X458645Y834169D01*
X458735Y834072D01*
X458822Y833972D01*
X458907Y833870D01*
X458988Y833765D01*
X459066Y833658D01*
X459142Y833549D01*
X459213Y833438D01*
X459282Y833324D01*
X459347Y833209D01*
X459409Y833091D01*
X459467Y832972D01*
X459522Y832851D01*
X459573Y832729D01*
X459621Y832605D01*
X459665Y832480D01*
X459705Y832354D01*
X459741Y832226D01*
X459774Y832098D01*
X459803Y831969D01*
X459828Y831838D01*
X459849Y831708D01*
X459867Y831576D01*
X459880Y831444D01*
X459890Y831312D01*
X459896Y831180D01*
X459898Y831047D01*
X459898Y826532D01*
X459896Y826357D01*
X459890Y826183D01*
X459879Y826009D01*
X459864Y825835D01*
X459845Y825661D01*
X459822Y825488D01*
X459795Y825316D01*
X459763Y825144D01*
X459728Y824973D01*
X459688Y824803D01*
X459644Y824634D01*
X459596Y824466D01*
X459544Y824299D01*
X459488Y824134D01*
X459428Y823970D01*
X459365Y823807D01*
X459297Y823647D01*
X459225Y823487D01*
X459150Y823330D01*
X459070Y823174D01*
X458987Y823021D01*
X458901Y822869D01*
X458810Y822720D01*
X458716Y822573D01*
X458619Y822428D01*
X458518Y822285D01*
X458414Y822145D01*
X458306Y822008D01*
X458195Y821873D01*
X458081Y821741D01*
X457964Y821612D01*
X457843Y821485D01*
X457720Y821362D01*
X457593Y821241D01*
X457464Y821124D01*
X457332Y821010D01*
X457197Y820899D01*
X457060Y820791D01*
X456920Y820687D01*
X456777Y820586D01*
X456632Y820489D01*
X456485Y820395D01*
X456336Y820304D01*
X456184Y820218D01*
X456031Y820135D01*
X455875Y820055D01*
X455718Y819980D01*
X455558Y819908D01*
X455398Y819840D01*
X455235Y819777D01*
X455071Y819717D01*
X454906Y819661D01*
X454739Y819609D01*
X454571Y819561D01*
X454402Y819517D01*
X454232Y819477D01*
X454061Y819442D01*
X453889Y819410D01*
X453717Y819383D01*
X453544Y819360D01*
X453370Y819341D01*
X453196Y819326D01*
X453022Y819315D01*
X452848Y819309D01*
X452673Y819307D01*
X466498Y827435D02*
X466502Y827755D01*
X466513Y828074D01*
X466532Y828394D01*
X466559Y828712D01*
X466593Y829030D01*
X466635Y829347D01*
X466685Y829663D01*
X466742Y829978D01*
X466806Y830291D01*
X466878Y830603D01*
X466957Y830913D01*
X467044Y831220D01*
X467138Y831526D01*
X467239Y831829D01*
X467348Y832130D01*
X467463Y832428D01*
X467586Y832724D01*
X467716Y833016D01*
X467853Y833305D01*
X467853Y833306D02*
X467892Y833414D01*
X467935Y833521D01*
X467981Y833626D01*
X468032Y833730D01*
X468085Y833832D01*
X468142Y833932D01*
X468203Y834030D01*
X468267Y834125D01*
X468334Y834219D01*
X468405Y834310D01*
X468478Y834399D01*
X468555Y834485D01*
X468634Y834568D01*
X468716Y834649D01*
X468801Y834727D01*
X468889Y834801D01*
X468979Y834873D01*
X469071Y834941D01*
X469166Y835007D01*
X469263Y835069D01*
X469362Y835127D01*
X469464Y835183D01*
X469566Y835234D01*
X469671Y835282D01*
X469777Y835327D01*
X469885Y835368D01*
X469994Y835405D01*
X470104Y835438D01*
X470216Y835467D01*
X470328Y835493D01*
X470441Y835515D01*
X470555Y835532D01*
X470669Y835546D01*
X470784Y835556D01*
X470899Y835562D01*
X471014Y835564D01*
X471014Y835563D02*
X471129Y835561D01*
X471244Y835555D01*
X471359Y835545D01*
X471473Y835531D01*
X471587Y835514D01*
X471700Y835492D01*
X471812Y835466D01*
X471924Y835437D01*
X472034Y835404D01*
X472143Y835367D01*
X472251Y835326D01*
X472357Y835281D01*
X472462Y835233D01*
X472564Y835182D01*
X472665Y835126D01*
X472765Y835068D01*
X472862Y835006D01*
X472956Y834941D01*
X473049Y834872D01*
X473139Y834800D01*
X473227Y834726D01*
X473312Y834648D01*
X473394Y834567D01*
X473473Y834484D01*
X473550Y834398D01*
X473623Y834309D01*
X473694Y834218D01*
X473761Y834124D01*
X473825Y834029D01*
X473886Y833931D01*
X473943Y833831D01*
X473996Y833729D01*
X474047Y833625D01*
X474093Y833520D01*
X474136Y833413D01*
X474175Y833305D01*
X474174Y833305D02*
X474311Y833016D01*
X474441Y832724D01*
X474564Y832428D01*
X474679Y832130D01*
X474788Y831829D01*
X474889Y831526D01*
X474983Y831220D01*
X475070Y830913D01*
X475149Y830603D01*
X475221Y830291D01*
X475285Y829978D01*
X475342Y829663D01*
X475392Y829347D01*
X475434Y829030D01*
X475468Y828712D01*
X475495Y828394D01*
X475514Y828074D01*
X475525Y827755D01*
X475529Y827435D01*
X466498Y827435D02*
X466502Y827115D01*
X466513Y826796D01*
X466532Y826476D01*
X466559Y826158D01*
X466593Y825840D01*
X466635Y825523D01*
X466685Y825207D01*
X466742Y824892D01*
X466806Y824579D01*
X466878Y824267D01*
X466957Y823957D01*
X467044Y823650D01*
X467138Y823344D01*
X467239Y823041D01*
X467348Y822740D01*
X467463Y822442D01*
X467586Y822146D01*
X467716Y821854D01*
X467853Y821565D01*
X467892Y821457D01*
X467935Y821350D01*
X467981Y821245D01*
X468032Y821141D01*
X468085Y821039D01*
X468142Y820939D01*
X468203Y820841D01*
X468267Y820746D01*
X468334Y820652D01*
X468405Y820561D01*
X468478Y820472D01*
X468555Y820386D01*
X468634Y820303D01*
X468716Y820222D01*
X468801Y820144D01*
X468889Y820070D01*
X468979Y819998D01*
X469072Y819929D01*
X469166Y819864D01*
X469263Y819802D01*
X469363Y819744D01*
X469464Y819688D01*
X469566Y819637D01*
X469671Y819589D01*
X469777Y819544D01*
X469885Y819503D01*
X469994Y819466D01*
X470104Y819433D01*
X470216Y819404D01*
X470328Y819378D01*
X470441Y819356D01*
X470555Y819339D01*
X470669Y819325D01*
X470784Y819315D01*
X470899Y819309D01*
X471014Y819307D01*
X474174Y821565D02*
X474311Y821854D01*
X474441Y822146D01*
X474564Y822442D01*
X474679Y822740D01*
X474788Y823041D01*
X474889Y823344D01*
X474983Y823650D01*
X475070Y823957D01*
X475149Y824267D01*
X475221Y824579D01*
X475285Y824892D01*
X475342Y825207D01*
X475392Y825523D01*
X475434Y825840D01*
X475468Y826158D01*
X475495Y826476D01*
X475514Y826796D01*
X475525Y827115D01*
X475529Y827435D01*
X474175Y821565D02*
X474136Y821457D01*
X474093Y821350D01*
X474047Y821245D01*
X473996Y821141D01*
X473943Y821039D01*
X473886Y820939D01*
X473825Y820841D01*
X473761Y820746D01*
X473694Y820652D01*
X473623Y820561D01*
X473550Y820472D01*
X473473Y820386D01*
X473394Y820303D01*
X473312Y820222D01*
X473227Y820144D01*
X473139Y820070D01*
X473049Y819998D01*
X472956Y819929D01*
X472862Y819864D01*
X472765Y819802D01*
X472665Y819744D01*
X472564Y819688D01*
X472461Y819637D01*
X472357Y819589D01*
X472251Y819544D01*
X472143Y819503D01*
X472034Y819466D01*
X471924Y819433D01*
X471812Y819404D01*
X471700Y819378D01*
X471587Y819356D01*
X471473Y819339D01*
X471359Y819325D01*
X471244Y819315D01*
X471129Y819309D01*
X471014Y819307D01*
X467401Y822919D02*
X474626Y831951D01*
D13*
X660400Y762000D03*
X711200Y762000D03*
D14*
X863600Y419100D03*
X812800Y419100D03*
X812800Y342900D03*
X685800Y342900D03*
D13*
X736600Y635000D03*
X863600Y635000D03*
D15*
X152400Y557530D03*
X152400Y509270D03*
D16*
X310896Y762000D02*
X324104Y762000D01*
X324104Y736600D02*
X310896Y736600D01*
X310896Y609600D02*
X324104Y609600D01*
X324104Y584200D02*
X310896Y584200D01*
X310896Y711200D02*
X324104Y711200D01*
X324104Y685800D02*
X310896Y685800D01*
X310896Y635000D02*
X324104Y635000D01*
X324104Y660400D02*
X310896Y660400D01*
X387096Y584200D02*
X400304Y584200D01*
X400304Y609600D02*
X387096Y609600D01*
X387096Y635000D02*
X400304Y635000D01*
X400304Y660400D02*
X387096Y660400D01*
X387096Y685800D02*
X400304Y685800D01*
X400304Y711200D02*
X387096Y711200D01*
X387096Y736600D02*
X400304Y736600D01*
X400304Y762000D02*
X387096Y762000D01*
D15*
X342900Y533400D03*
X342900Y508000D03*
X419100Y508000D03*
X419100Y533400D03*
X342900Y482600D03*
X342900Y457200D03*
X419100Y482600D03*
X419100Y457200D03*
D16*
X63500Y691896D02*
X63500Y705104D01*
X88900Y705104D02*
X88900Y691896D01*
X215900Y691896D02*
X215900Y705104D01*
X241300Y705104D02*
X241300Y691896D01*
X114300Y691896D02*
X114300Y705104D01*
X139700Y705104D02*
X139700Y691896D01*
X190500Y691896D02*
X190500Y705104D01*
X165100Y705104D02*
X165100Y691896D01*
X241300Y768096D02*
X241300Y781304D01*
X215900Y781304D02*
X215900Y768096D01*
X190500Y768096D02*
X190500Y781304D01*
X165100Y781304D02*
X165100Y768096D01*
X139700Y768096D02*
X139700Y781304D01*
X114300Y781304D02*
X114300Y768096D01*
X88900Y768096D02*
X88900Y781304D01*
X63500Y781304D02*
X63500Y768096D01*
D17*
X342900Y330200D03*
X368300Y330200D03*
X406400Y330200D03*
X431800Y330200D03*
X368300Y393700D03*
X393700Y393700D03*
X419100Y393700D03*
D18*
X50800Y431800D03*
X50800Y482600D03*
X165100Y330200D03*
X165100Y457200D03*
X228600Y330200D03*
X228600Y457200D03*
D13*
X787400Y711200D03*
X838200Y711200D03*
X584200Y342900D03*
X635000Y342900D03*
D19*
X177800Y635000D03*
X25400Y635000D03*
D14*
X863600Y774700D03*
X736600Y774700D03*
D18*
X838200Y457200D03*
X838200Y584200D03*
X596900Y419100D03*
X596900Y546100D03*
D13*
X635000Y571500D03*
X762000Y571500D03*
D16*
X501904Y762000D02*
X488696Y762000D01*
X488696Y736600D02*
X501904Y736600D01*
X501904Y609600D02*
X488696Y609600D01*
X488696Y584200D02*
X501904Y584200D01*
X501904Y711200D02*
X488696Y711200D01*
X488696Y685800D02*
X501904Y685800D01*
X501904Y635000D02*
X488696Y635000D01*
X488696Y660400D02*
X501904Y660400D01*
X564896Y584200D02*
X578104Y584200D01*
X578104Y609600D02*
X564896Y609600D01*
X564896Y635000D02*
X578104Y635000D01*
X578104Y660400D02*
X564896Y660400D01*
X564896Y685800D02*
X578104Y685800D01*
X578104Y711200D02*
X564896Y711200D01*
X564896Y736600D02*
X578104Y736600D01*
X578104Y762000D02*
X564896Y762000D01*
D20*
X50800Y584200D03*
X50800Y533400D03*
D13*
X25400Y342900D03*
X76200Y342900D03*
D12*
X41910Y580518D02*
X41910Y587882D01*
X235076Y698500D02*
X241300Y698500D01*
X235076Y698500D02*
X219582Y683006D01*
X137034Y683006D02*
X41910Y587882D01*
X137034Y683006D02*
X219582Y683006D01*
X50800Y571628D02*
X50800Y533400D01*
X50800Y571628D02*
X41910Y580518D01*
X571500Y736600D02*
X812800Y736600D01*
X838200Y711200D01*
X419100Y393700D02*
X403860Y378460D01*
X403860Y332740D01*
X406400Y330200D01*
X556006Y732918D02*
X556006Y740282D01*
X556006Y732918D02*
X561214Y727710D01*
X574166Y727710D01*
X596900Y704976D01*
X596900Y546100D01*
X571500Y755776D02*
X571500Y762000D01*
X571500Y755776D02*
X556006Y740282D01*
X635000Y584200D02*
X596900Y546100D01*
X635000Y584200D02*
X838200Y584200D01*
X594000Y546100D02*
X590424Y546100D01*
X594000Y546100D02*
X596900Y546100D01*
D21*
X486000Y540000D03*
D12*
X492100Y546100D01*
X590424Y546100D01*
X125730Y584200D02*
X50800Y584200D01*
X125730Y584200D02*
X152400Y557530D01*
X514476Y711200D02*
X571500Y711200D01*
X514476Y711200D02*
X505586Y720090D01*
X453390Y720090D02*
X393700Y660400D01*
X453390Y720090D02*
X505586Y720090D01*
X571500Y660400D02*
X510794Y599694D01*
X510794Y580518D01*
X429386Y499110D02*
X422782Y499110D01*
X253872Y330200D01*
X429386Y499110D02*
X510794Y580518D01*
X253872Y330200D02*
X228600Y330200D01*
X25400Y342900D02*
X25400Y382270D01*
X152400Y509270D01*
X580518Y334010D02*
X587882Y334010D01*
X711072Y457200D02*
X838200Y457200D01*
X457328Y457200D02*
X419100Y457200D01*
X587882Y334010D02*
X711072Y457200D01*
X580518Y334010D02*
X457328Y457200D01*
X444500Y482600D02*
X419100Y482600D01*
X444500Y482600D02*
X584200Y342900D01*
X546100Y482600D02*
X419100Y482600D01*
X546100Y482600D02*
X635000Y571500D01*
X707518Y770890D02*
X714882Y770890D01*
X698628Y762000D02*
X660400Y762000D01*
X698628Y762000D02*
X707518Y770890D01*
X714882Y770890D02*
X723772Y762000D01*
X820778Y762000D01*
X874778Y708000D01*
X765810Y575310D02*
X762000Y571500D01*
X765810Y575310D02*
X841882Y575310D01*
X874778Y608206D02*
X874778Y708000D01*
X874778Y608206D02*
X841882Y575310D01*
M02*
