G04 EAGLE Gerber RS-274X export*
G75*
%MOMM*%
%FSLAX34Y34*%
%LPD*%
%INSoldermask Top*%
%IPPOS*%
%AMOC8*
5,1,8,0,0,1.08239X$1,22.5*%
G01*
%ADD10P,1.649562X8X22.500000*%
%ADD11P,1.649562X8X202.500000*%
%ADD12C,1.524000*%
%ADD13C,1.524000*%
%ADD14C,2.082800*%
%ADD15P,1.649562X8X112.500000*%
%ADD16P,1.759533X8X202.500000*%
%ADD17P,1.649562X8X292.500000*%
%ADD18C,0.959600*%


D10*
X660400Y762000D03*
X711200Y762000D03*
D11*
X863600Y419100D03*
X812800Y419100D03*
X812800Y342900D03*
X685800Y342900D03*
D10*
X736600Y635000D03*
X863600Y635000D03*
D12*
X152400Y557530D03*
X152400Y509270D03*
D13*
X310896Y762000D02*
X324104Y762000D01*
X324104Y736600D02*
X310896Y736600D01*
X310896Y609600D02*
X324104Y609600D01*
X324104Y584200D02*
X310896Y584200D01*
X310896Y711200D02*
X324104Y711200D01*
X324104Y685800D02*
X310896Y685800D01*
X310896Y635000D02*
X324104Y635000D01*
X324104Y660400D02*
X310896Y660400D01*
X387096Y584200D02*
X400304Y584200D01*
X400304Y609600D02*
X387096Y609600D01*
X387096Y635000D02*
X400304Y635000D01*
X400304Y660400D02*
X387096Y660400D01*
X387096Y685800D02*
X400304Y685800D01*
X400304Y711200D02*
X387096Y711200D01*
X387096Y736600D02*
X400304Y736600D01*
X400304Y762000D02*
X387096Y762000D01*
D12*
X342900Y533400D03*
X342900Y508000D03*
X419100Y508000D03*
X419100Y533400D03*
X342900Y482600D03*
X342900Y457200D03*
X419100Y482600D03*
X419100Y457200D03*
D13*
X63500Y691896D02*
X63500Y705104D01*
X88900Y705104D02*
X88900Y691896D01*
X215900Y691896D02*
X215900Y705104D01*
X241300Y705104D02*
X241300Y691896D01*
X114300Y691896D02*
X114300Y705104D01*
X139700Y705104D02*
X139700Y691896D01*
X190500Y691896D02*
X190500Y705104D01*
X165100Y705104D02*
X165100Y691896D01*
X241300Y768096D02*
X241300Y781304D01*
X215900Y781304D02*
X215900Y768096D01*
X190500Y768096D02*
X190500Y781304D01*
X165100Y781304D02*
X165100Y768096D01*
X139700Y768096D02*
X139700Y781304D01*
X114300Y781304D02*
X114300Y768096D01*
X88900Y768096D02*
X88900Y781304D01*
X63500Y781304D02*
X63500Y768096D01*
D14*
X342900Y330200D03*
X368300Y330200D03*
X406400Y330200D03*
X431800Y330200D03*
X368300Y393700D03*
X393700Y393700D03*
X419100Y393700D03*
D15*
X50800Y431800D03*
X50800Y482600D03*
X165100Y330200D03*
X165100Y457200D03*
X228600Y330200D03*
X228600Y457200D03*
D10*
X787400Y711200D03*
X838200Y711200D03*
X584200Y342900D03*
X635000Y342900D03*
D16*
X177800Y635000D03*
X25400Y635000D03*
D11*
X863600Y774700D03*
X736600Y774700D03*
D15*
X838200Y457200D03*
X838200Y584200D03*
X596900Y419100D03*
X596900Y546100D03*
D10*
X635000Y571500D03*
X762000Y571500D03*
D13*
X501904Y762000D02*
X488696Y762000D01*
X488696Y736600D02*
X501904Y736600D01*
X501904Y609600D02*
X488696Y609600D01*
X488696Y584200D02*
X501904Y584200D01*
X501904Y711200D02*
X488696Y711200D01*
X488696Y685800D02*
X501904Y685800D01*
X501904Y635000D02*
X488696Y635000D01*
X488696Y660400D02*
X501904Y660400D01*
X564896Y584200D02*
X578104Y584200D01*
X578104Y609600D02*
X564896Y609600D01*
X564896Y635000D02*
X578104Y635000D01*
X578104Y660400D02*
X564896Y660400D01*
X564896Y685800D02*
X578104Y685800D01*
X578104Y711200D02*
X564896Y711200D01*
X564896Y736600D02*
X578104Y736600D01*
X578104Y762000D02*
X564896Y762000D01*
D17*
X50800Y584200D03*
X50800Y533400D03*
D10*
X25400Y342900D03*
X76200Y342900D03*
D18*
X486000Y540000D03*
M02*
