M48
;GenerationSoftware,Autodesk,EAGLE,9.6.2*%
;CreationDate,2023-10-21T13:31:35Z*%
FMAT,2
ICI,OFF
METRIC,TZ,000.000
T4C0.350
T3C0.813
T2C0.914
T1C1.016
%
G90
M71
T1
X34290Y33020
X36830Y33020
X40640Y33020
X43180Y33020
X36830Y39370
X39370Y39370
X41910Y39370
T2
X17780Y63500
X2540Y63500
T3
X86360Y63500
X15240Y55753
X15240Y50927
X31750Y76200
X39370Y71120
X31750Y60960
X31750Y58420
X31750Y71120
X31750Y68580
X31750Y63500
X31750Y66040
X39370Y58420
X39370Y60960
X39370Y63500
X39370Y66040
X39370Y68580
X39370Y73660
X39370Y76200
X34290Y53340
X34290Y50800
X41910Y50800
X41910Y53340
X34290Y48260
X34290Y45720
X41910Y48260
X41910Y45720
X6350Y69850
X8890Y69850
X21590Y69850
X24130Y69850
X11430Y69850
X13970Y69850
X19050Y69850
X16510Y69850
X24130Y77470
X21590Y77470
X19050Y77470
X16510Y77470
X13970Y77470
X11430Y77470
X8890Y77470
X6350Y77470
X31750Y73660
X66040Y76200
X71120Y76200
X86360Y41910
X81280Y41910
X81280Y34290
X5080Y43180
X5080Y48260
X16510Y33020
X16510Y45720
X22860Y33020
X22860Y45720
X78740Y71120
X83820Y71120
X58420Y34290
X63500Y34290
X68580Y34290
X73660Y63500
X86360Y77470
X73660Y77470
X83820Y45720
X83820Y58420
X59690Y41910
X59690Y54610
X63500Y57150
X76200Y57150
X49530Y76200
X49530Y73660
X49530Y60960
X49530Y58420
X49530Y71120
X49530Y68580
X49530Y63500
X49530Y66040
X57150Y58420
X57150Y60960
X57150Y63500
X57150Y66040
X57150Y68580
X57150Y71120
X57150Y73660
X57150Y76200
X5080Y58420
X5080Y53340
X2540Y34290
X7620Y34290
T4
X48600Y54000
M30